<?xml version="1.0" encoding="UTF-8" standalone="no"?>
<svg xmlns:inkscape="http://www.inkscape.org/namespaces/inkscape" xmlns:rdf="http://www.w3.org/1999/02/22-rdf-syntax-ns#" xmlns="http://www.w3.org/2000/svg" xmlns:xlink="http://www.w3.org/1999/xlink" xmlns:ns1="http://sozi.baierouge.fr" xmlns:cc="http://web.resource.org/cc/" xmlns:sodipodi="http://sodipodi.sourceforge.net/DTD/sodipodi-0.dtd" xmlns:dc="http://purl.org/dc/elements/1.1/" id="svg1" sodipodi:docname="help.svg" viewBox="0 0 60 60" sodipodi:version="0.32" _SVGFile__filename="oldscale/apps/gnome_question.svg" version="1.0" y="0" x="0" inkscape:version="0.40" sodipodi:docbase="/home/danny/.kde/share/icons/FlatSVG/scalable/actions">
  <sodipodi:namedview id="base" bordercolor="#666666" inkscape:pageshadow="2" inkscape:window-y="0" pagecolor="#ffffff" inkscape:window-height="699" inkscape:zoom="2.7008689" inkscape:window-x="0" borderopacity="1.0" inkscape:current-layer="svg1" inkscape:cx="84.070710" inkscape:cy="25.336379" inkscape:window-width="1024" inkscape:pageopacity="0.0000000"/>
  <path id="path1710" sodipodi:nodetypes="ccccccccccccccccccccccccccccccccccccccccccc" style="stroke-linejoin:round;stroke:#ffffff;stroke-linecap:round;stroke-width:5;fill:none" d="m29.336 3.125c2.312 0 4.508 0.3544 6.512 1.0368 2.003 0.6825 3.767 1.6652 5.308 2.9862 1.542 1.3209 2.75 2.918 3.609 4.811 0.88 1.871 1.285 3.992 1.285 6.304 0 4.139-1.019 7.332-3.11 9.622-2.07 2.267-4.911 3.772-8.544 4.52v1.328c0 1.056-0.243 2.005-0.705 2.82-0.44 0.792-1.093 1.404-1.908 1.866-0.792 0.44-1.683 0.664-2.695 0.664-1.013 0-1.923-0.224-2.738-0.664-0.792-0.462-1.404-1.074-1.866-1.866-0.44-0.815-0.664-1.764-0.664-2.82v-5.433c0-1.123 0.202-2.019 0.664-2.613 0.462-0.595 1.04-0.983 1.7-1.203 0.661-0.22 1.666-0.463 2.987-0.705 3.434-0.639 5.142-2.366 5.142-5.184 0-1.145-0.485-2.167-1.41-3.069-0.902-0.925-2.092-1.369-3.567-1.369-1.365 0-2.442 0.26-3.235 0.788-0.77 0.528-1.51 1.31-2.281 2.323-0.748 0.99-1.493 1.752-2.198 2.281-0.682 0.506-1.631 0.746-2.82 0.746-1.343 0-2.474-0.522-3.442-1.534-0.947-1.035-1.41-2.222-1.41-3.609 0-2.421 0.779-4.559 2.364-6.3866 1.585-1.8272 3.553-3.2202 5.93-4.1888 2.378-0.9687 4.737-1.4516 7.092-1.4516zm-0.331 41.847c1.034 0 2 0.279 2.903 0.83 0.902 0.55 1.587 1.273 2.115 2.198 0.55 0.902 0.829 1.888 0.829 2.944 0 1.079-0.279 2.103-0.829 3.028-0.528 0.902-1.232 1.587-2.157 2.115-0.902 0.528-1.849 0.788-2.861 0.788-1.013 0-1.979-0.26-2.904-0.788-0.902-0.528-1.647-1.213-2.198-2.115-0.528-0.925-0.788-1.949-0.788-3.028 0-1.056 0.26-2.042 0.788-2.944 0.551-0.925 1.296-1.648 2.198-2.198 0.903-0.551 1.869-0.83 2.904-0.83z"/>
  <path id="path839" sodipodi:nodetypes="ccccccccccccccccccccccccccccccccccccccccccc" style="fill-rule:evenodd;fill:#000000" d="m29.336 3.125c2.312 0 4.508 0.3544 6.512 1.0368 2.003 0.6825 3.767 1.6652 5.308 2.9862 1.542 1.3209 2.75 2.918 3.609 4.811 0.88 1.871 1.285 3.992 1.285 6.304 0 4.139-1.019 7.332-3.11 9.622-2.07 2.267-4.911 3.772-8.544 4.52v1.328c0 1.056-0.243 2.005-0.705 2.82-0.44 0.792-1.093 1.404-1.908 1.866-0.792 0.44-1.683 0.664-2.695 0.664-1.013 0-1.923-0.224-2.738-0.664-0.792-0.462-1.404-1.074-1.866-1.866-0.44-0.815-0.664-1.764-0.664-2.82v-5.433c0-1.123 0.202-2.019 0.664-2.613 0.462-0.595 1.04-0.983 1.7-1.203 0.661-0.22 1.666-0.463 2.987-0.705 3.434-0.639 5.142-2.366 5.142-5.184 0-1.145-0.485-2.167-1.41-3.069-0.902-0.925-2.092-1.369-3.567-1.369-1.365 0-2.442 0.26-3.235 0.788-0.77 0.528-1.51 1.31-2.281 2.323-0.748 0.99-1.493 1.752-2.198 2.281-0.682 0.506-1.631 0.746-2.82 0.746-1.343 0-2.474-0.522-3.442-1.534-0.947-1.035-1.41-2.222-1.41-3.609 0-2.421 0.779-4.559 2.364-6.3866 1.585-1.8272 3.553-3.2202 5.93-4.1888 2.378-0.9687 4.737-1.4516 7.092-1.4516zm-0.331 41.847c1.034 0 2 0.279 2.903 0.83 0.902 0.55 1.587 1.273 2.115 2.198 0.55 0.902 0.829 1.888 0.829 2.944 0 1.079-0.279 2.103-0.829 3.028-0.528 0.902-1.232 1.587-2.157 2.115-0.902 0.528-1.849 0.788-2.861 0.788-1.013 0-1.979-0.26-2.904-0.788-0.902-0.528-1.647-1.213-2.198-2.115-0.528-0.925-0.788-1.949-0.788-3.028 0-1.056 0.26-2.042 0.788-2.944 0.551-0.925 1.296-1.648 2.198-2.198 0.903-0.551 1.869-0.83 2.904-0.83z"/>
  <metadata>
    <rdf:RDF>
      <cc:Work>
        <dc:format>image/svg+xml</dc:format>
        <dc:type rdf:resource="http://purl.org/dc/dcmitype/StillImage"/>
        <cc:license rdf:resource="http://creativecommons.org/licenses/publicdomain/"/>
        <dc:publisher>
          <cc:Agent rdf:about="http://openclipart.org/">
            <dc:title>Openclipart</dc:title>
          </cc:Agent>
        </dc:publisher>
      </cc:Work>
      <cc:License rdf:about="http://creativecommons.org/licenses/publicdomain/">
        <cc:permits rdf:resource="http://creativecommons.org/ns#Reproduction"/>
        <cc:permits rdf:resource="http://creativecommons.org/ns#Distribution"/>
        <cc:permits rdf:resource="http://creativecommons.org/ns#DerivativeWorks"/>
      </cc:License>
    </rdf:RDF>
  </metadata>
</svg>